<?xml version="1.0" standalone="no"?><!DOCTYPE svg PUBLIC "-//W3C//DTD SVG 1.1//EN" "http://www.w3.org/Graphics/SVG/1.1/DTD/svg11.dtd"><svg t="1552025687991" class="icon" style="" viewBox="0 0 1024 1024" version="1.1" xmlns="http://www.w3.org/2000/svg" p-id="23119" xmlns:xlink="http://www.w3.org/1999/xlink" width="32" height="32"><defs><style type="text/css"></style></defs><path d="M958.976 408.064c0-50.688-299.52-57.856-299.52-57.856S573.44 80.896 512 80.896s-147.456 269.312-147.456 269.312-299.52-1.024-299.52 57.856 208.384 224.768 208.384 224.768-68.608 274.432-37.888 305.152 276.48-130.56 276.48-130.56 240.128 167.424 276.48 130.56c36.352-36.864-37.888-305.152-37.888-305.152s208.384-174.08 208.384-224.768z m-482.816-7.168c-26.624 38.4-60.416 60.928-109.056 68.608-36.352 5.632-86.528 0.512-101.888-12.8-14.848-13.312-17.408-19.456-9.728-29.696 8.192-10.752 61.952 0 78.336 0 16.384 0 63.488-6.144 88.576-35.328 25.088-29.696 32.768-62.976 34.816-73.728 6.144-28.672 35.84-23.552 36.864 8.704 1.024 13.312-0.512 49.152-17.92 74.24z" fill="#FFD200" p-id="23120"></path></svg>